# xmcd
# 
# Track frame offsets:
#     150
#     24557
#     41348
#     64979
#     79265
#     99728
#     127668
#     145510
#     165307
#     183460
#     198768
#     218778
#     238079
# 
# Disc length: 3438
# 
# Revision: 4
# Processed by: cddbd v1.5.2PL0 Copyright (c) Steve Scherf et al.
# Submitted via: fre:ac v1.0.17
# 
DISCID=a70d6c0d
DTITLE=シェネル（Che'Nelle） - ラブ・ソングス
DYEAR=2011
DGENRE=J-Pop
TTITLE0=BABY I LOVE U
TTITLE1=Sunshine Girl
TTITLE2=For You
TTITLE3=So Sick
TTITLE4=SAKURA
TTITLE5=Everything
TTITLE6=ガラス越しに消えた夏
TTITLE7=Missing
TTITLE8=Saving All My Love For You
TTITLE9=Lovin' You
TTITLE10=Without You
TTITLE11=上を向いて歩こう
TTITLE12=Missing　(Japanese Ver.) Bonus Track　
EXTD=YEAR: 2011
EXTT0=
EXTT1=
EXTT2=
EXTT3=
EXTT4=
EXTT5=
EXTT6=
EXTT7=
EXTT8=
EXTT9=
EXTT10=
EXTT11=
EXTT12=
PLAYORDER=
